<mxfile host="app.diagrams.net" modified="2021-03-11T02:37:53.956Z" agent="5.0 (Macintosh; Intel Mac OS X 11_2_2) AppleWebKit/537.36 (KHTML, like Gecko) Chrome/88.0.4324.192 Safari/537.36" etag="wYgwVHmzK1x23pp1yXAH" version="14.4.6" type="github">
  <diagram id="dd8-HZ_Re7ayPJgVSW-A" name="Page-1">
    <mxGraphModel dx="2893" dy="1154" grid="1" gridSize="10" guides="1" tooltips="1" connect="1" arrows="1" fold="1" page="1" pageScale="1" pageWidth="827" pageHeight="1169" math="0" shadow="0">
      <root>
        <mxCell id="0" />
        <mxCell id="1" parent="0" />
        <mxCell id="NRl-5sNRhDK3zXcC5VCT-4" style="edgeStyle=orthogonalEdgeStyle;rounded=0;orthogonalLoop=1;jettySize=auto;html=1;" parent="1" source="NRl-5sNRhDK3zXcC5VCT-1" target="NRl-5sNRhDK3zXcC5VCT-3" edge="1">
          <mxGeometry relative="1" as="geometry" />
        </mxCell>
        <mxCell id="NRl-5sNRhDK3zXcC5VCT-1" value="定时任务同步置业顾问信息" style="rounded=0;whiteSpace=wrap;html=1;" parent="1" vertex="1">
          <mxGeometry x="120" y="100" width="120" height="60" as="geometry" />
        </mxCell>
        <mxCell id="NRl-5sNRhDK3zXcC5VCT-6" style="edgeStyle=orthogonalEdgeStyle;rounded=0;orthogonalLoop=1;jettySize=auto;html=1;" parent="1" source="NRl-5sNRhDK3zXcC5VCT-3" target="NRl-5sNRhDK3zXcC5VCT-5" edge="1">
          <mxGeometry relative="1" as="geometry" />
        </mxCell>
        <mxCell id="NRl-5sNRhDK3zXcC5VCT-10" style="edgeStyle=orthogonalEdgeStyle;rounded=0;orthogonalLoop=1;jettySize=auto;html=1;entryX=1;entryY=0.5;entryDx=0;entryDy=0;" parent="1" source="NRl-5sNRhDK3zXcC5VCT-3" target="NRl-5sNRhDK3zXcC5VCT-7" edge="1">
          <mxGeometry relative="1" as="geometry">
            <mxPoint x="270" y="430" as="targetPoint" />
            <Array as="points">
              <mxPoint x="280" y="245" />
              <mxPoint x="280" y="480" />
            </Array>
          </mxGeometry>
        </mxCell>
        <mxCell id="NRl-5sNRhDK3zXcC5VCT-3" value="存在置业顾问" style="rhombus;whiteSpace=wrap;html=1;" parent="1" vertex="1">
          <mxGeometry x="125" y="200" width="110" height="90" as="geometry" />
        </mxCell>
        <mxCell id="NRl-5sNRhDK3zXcC5VCT-8" style="edgeStyle=orthogonalEdgeStyle;rounded=0;orthogonalLoop=1;jettySize=auto;html=1;entryX=0.5;entryY=0;entryDx=0;entryDy=0;" parent="1" source="NRl-5sNRhDK3zXcC5VCT-5" target="NRl-5sNRhDK3zXcC5VCT-7" edge="1">
          <mxGeometry relative="1" as="geometry" />
        </mxCell>
        <mxCell id="NRl-5sNRhDK3zXcC5VCT-5" value="新增置业顾问企业微信配置表" style="rounded=0;whiteSpace=wrap;html=1;" parent="1" vertex="1">
          <mxGeometry x="120" y="330" width="120" height="60" as="geometry" />
        </mxCell>
        <mxCell id="NRl-5sNRhDK3zXcC5VCT-7" value="返回配置的企业微信顾问信息" style="rounded=0;whiteSpace=wrap;html=1;" parent="1" vertex="1">
          <mxGeometry x="120" y="450" width="120" height="60" as="geometry" />
        </mxCell>
        <mxCell id="NRl-5sNRhDK3zXcC5VCT-11" value="是" style="text;html=1;strokeColor=none;fillColor=none;align=center;verticalAlign=middle;whiteSpace=wrap;rounded=0;" parent="1" vertex="1">
          <mxGeometry x="140" y="290" width="40" height="20" as="geometry" />
        </mxCell>
        <mxCell id="NRl-5sNRhDK3zXcC5VCT-12" value="否" style="text;html=1;strokeColor=none;fillColor=none;align=center;verticalAlign=middle;whiteSpace=wrap;rounded=0;" parent="1" vertex="1">
          <mxGeometry x="235" y="210" width="40" height="20" as="geometry" />
        </mxCell>
        <mxCell id="NRl-5sNRhDK3zXcC5VCT-16" style="edgeStyle=orthogonalEdgeStyle;rounded=0;orthogonalLoop=1;jettySize=auto;html=1;" parent="1" target="NRl-5sNRhDK3zXcC5VCT-15" edge="1">
          <mxGeometry relative="1" as="geometry">
            <mxPoint x="170" y="990" as="sourcePoint" />
          </mxGeometry>
        </mxCell>
        <mxCell id="NRl-5sNRhDK3zXcC5VCT-18" style="edgeStyle=orthogonalEdgeStyle;rounded=0;orthogonalLoop=1;jettySize=auto;html=1;" parent="1" source="NRl-5sNRhDK3zXcC5VCT-15" target="NRl-5sNRhDK3zXcC5VCT-17" edge="1">
          <mxGeometry relative="1" as="geometry" />
        </mxCell>
        <mxCell id="luivyYWbAEqouzFyZwgo-11" style="edgeStyle=orthogonalEdgeStyle;rounded=0;orthogonalLoop=1;jettySize=auto;html=1;" edge="1" parent="1" source="NRl-5sNRhDK3zXcC5VCT-15">
          <mxGeometry relative="1" as="geometry">
            <mxPoint x="320" y="1190" as="targetPoint" />
          </mxGeometry>
        </mxCell>
        <mxCell id="NRl-5sNRhDK3zXcC5VCT-15" value="" style="rhombus;whiteSpace=wrap;html=1;" parent="1" vertex="1">
          <mxGeometry x="80" y="1040" width="180" height="100" as="geometry" />
        </mxCell>
        <mxCell id="NRl-5sNRhDK3zXcC5VCT-17" value="" style="rounded=0;whiteSpace=wrap;html=1;" parent="1" vertex="1">
          <mxGeometry x="110" y="1190" width="120" height="60" as="geometry" />
        </mxCell>
        <mxCell id="NRl-5sNRhDK3zXcC5VCT-19" value="是" style="text;html=1;strokeColor=none;fillColor=none;align=center;verticalAlign=middle;whiteSpace=wrap;rounded=0;" parent="1" vertex="1">
          <mxGeometry x="165" y="1150" width="40" height="20" as="geometry" />
        </mxCell>
        <mxCell id="NRl-5sNRhDK3zXcC5VCT-20" value="开启" style="text;html=1;strokeColor=none;fillColor=none;align=center;verticalAlign=middle;whiteSpace=wrap;rounded=0;" parent="1" vertex="1">
          <mxGeometry x="150" y="1210" width="40" height="20" as="geometry" />
        </mxCell>
        <mxCell id="NRl-5sNRhDK3zXcC5VCT-21" value="" style="rounded=0;whiteSpace=wrap;html=1;" parent="1" vertex="1">
          <mxGeometry x="500" y="760" width="120" height="60" as="geometry" />
        </mxCell>
        <mxCell id="luivyYWbAEqouzFyZwgo-25" style="edgeStyle=orthogonalEdgeStyle;rounded=0;orthogonalLoop=1;jettySize=auto;html=1;" edge="1" parent="1" source="NRl-5sNRhDK3zXcC5VCT-22" target="luivyYWbAEqouzFyZwgo-23">
          <mxGeometry relative="1" as="geometry" />
        </mxCell>
        <mxCell id="NRl-5sNRhDK3zXcC5VCT-22" value="" style="rounded=0;whiteSpace=wrap;html=1;" parent="1" vertex="1">
          <mxGeometry x="115" y="1300" width="120" height="60" as="geometry" />
        </mxCell>
        <mxCell id="NRl-5sNRhDK3zXcC5VCT-28" value="拉风下架定时任务" style="text;html=1;strokeColor=none;fillColor=none;align=center;verticalAlign=middle;whiteSpace=wrap;rounded=0;" parent="1" vertex="1">
          <mxGeometry x="130" y="1310" width="90" height="40" as="geometry" />
        </mxCell>
        <mxCell id="NRl-5sNRhDK3zXcC5VCT-31" style="edgeStyle=orthogonalEdgeStyle;rounded=0;orthogonalLoop=1;jettySize=auto;html=1;" parent="1" source="NRl-5sNRhDK3zXcC5VCT-29" target="NRl-5sNRhDK3zXcC5VCT-30" edge="1">
          <mxGeometry relative="1" as="geometry" />
        </mxCell>
        <mxCell id="NRl-5sNRhDK3zXcC5VCT-29" value="运营在企业微信后台配置置业顾问" style="rounded=0;whiteSpace=wrap;html=1;" parent="1" vertex="1">
          <mxGeometry x="500" y="80" width="120" height="60" as="geometry" />
        </mxCell>
        <mxCell id="NRl-5sNRhDK3zXcC5VCT-33" style="edgeStyle=orthogonalEdgeStyle;rounded=0;orthogonalLoop=1;jettySize=auto;html=1;" parent="1" source="NRl-5sNRhDK3zXcC5VCT-30" target="NRl-5sNRhDK3zXcC5VCT-32" edge="1">
          <mxGeometry relative="1" as="geometry" />
        </mxCell>
        <mxCell id="NRl-5sNRhDK3zXcC5VCT-30" value="通过api给置业顾问创建对应的config_id，并且入库和缓存" style="rounded=0;whiteSpace=wrap;html=1;" parent="1" vertex="1">
          <mxGeometry x="500" y="215" width="120" height="60" as="geometry" />
        </mxCell>
        <mxCell id="NRl-5sNRhDK3zXcC5VCT-35" style="edgeStyle=orthogonalEdgeStyle;rounded=0;orthogonalLoop=1;jettySize=auto;html=1;entryX=0.5;entryY=0;entryDx=0;entryDy=0;" parent="1" source="NRl-5sNRhDK3zXcC5VCT-32" target="NRl-5sNRhDK3zXcC5VCT-34" edge="1">
          <mxGeometry relative="1" as="geometry" />
        </mxCell>
        <mxCell id="NRl-5sNRhDK3zXcC5VCT-32" value="给config_id创建缓存，如果缓存不存在查数据库" style="rounded=0;whiteSpace=wrap;html=1;" parent="1" vertex="1">
          <mxGeometry x="500" y="350" width="120" height="60" as="geometry" />
        </mxCell>
        <mxCell id="NRl-5sNRhDK3zXcC5VCT-37" style="edgeStyle=orthogonalEdgeStyle;rounded=0;orthogonalLoop=1;jettySize=auto;html=1;" parent="1" source="NRl-5sNRhDK3zXcC5VCT-34" target="NRl-5sNRhDK3zXcC5VCT-36" edge="1">
          <mxGeometry relative="1" as="geometry" />
        </mxCell>
        <mxCell id="NRl-5sNRhDK3zXcC5VCT-34" value="返回给置业顾问的列表，判断整个项目中是否存在开通企业微信的置业顾问" style="rounded=0;whiteSpace=wrap;html=1;" parent="1" vertex="1">
          <mxGeometry x="500" y="470" width="120" height="60" as="geometry" />
        </mxCell>
        <mxCell id="NRl-5sNRhDK3zXcC5VCT-36" value="接口返回给前端" style="rounded=0;whiteSpace=wrap;html=1;" parent="1" vertex="1">
          <mxGeometry x="500" y="590" width="120" height="60" as="geometry" />
        </mxCell>
        <mxCell id="luivyYWbAEqouzFyZwgo-3" style="edgeStyle=orthogonalEdgeStyle;rounded=0;orthogonalLoop=1;jettySize=auto;html=1;entryX=0.5;entryY=0;entryDx=0;entryDy=0;" edge="1" parent="1" target="luivyYWbAEqouzFyZwgo-2">
          <mxGeometry relative="1" as="geometry">
            <mxPoint x="170" y="830" as="sourcePoint" />
          </mxGeometry>
        </mxCell>
        <mxCell id="luivyYWbAEqouzFyZwgo-10" style="edgeStyle=orthogonalEdgeStyle;rounded=0;orthogonalLoop=1;jettySize=auto;html=1;" edge="1" parent="1" source="luivyYWbAEqouzFyZwgo-2" target="luivyYWbAEqouzFyZwgo-9">
          <mxGeometry relative="1" as="geometry">
            <mxPoint x="330" y="1180" as="targetPoint" />
            <Array as="points">
              <mxPoint x="320" y="940" />
            </Array>
          </mxGeometry>
        </mxCell>
        <mxCell id="luivyYWbAEqouzFyZwgo-2" value="" style="rhombus;whiteSpace=wrap;html=1;" vertex="1" parent="1">
          <mxGeometry x="80" y="890" width="180" height="100" as="geometry" />
        </mxCell>
        <mxCell id="luivyYWbAEqouzFyZwgo-4" value="查看企业微信是否配置该置业顾问" style="text;html=1;strokeColor=none;fillColor=none;align=center;verticalAlign=middle;whiteSpace=wrap;rounded=0;" vertex="1" parent="1">
          <mxGeometry x="117.5" y="915" width="105" height="50" as="geometry" />
        </mxCell>
        <mxCell id="luivyYWbAEqouzFyZwgo-5" value="是" style="text;html=1;strokeColor=none;fillColor=none;align=center;verticalAlign=middle;whiteSpace=wrap;rounded=0;" vertex="1" parent="1">
          <mxGeometry x="165" y="1000" width="40" height="20" as="geometry" />
        </mxCell>
        <mxCell id="luivyYWbAEqouzFyZwgo-6" value="查询拉风置业顾问是否处于启用状态" style="text;html=1;strokeColor=none;fillColor=none;align=center;verticalAlign=middle;whiteSpace=wrap;rounded=0;" vertex="1" parent="1">
          <mxGeometry x="117.5" y="1065" width="105" height="50" as="geometry" />
        </mxCell>
        <mxCell id="luivyYWbAEqouzFyZwgo-8" value="拉风下架置业顾问定时任务扫描" style="text;html=1;strokeColor=none;fillColor=none;align=center;verticalAlign=middle;whiteSpace=wrap;rounded=0;" vertex="1" parent="1">
          <mxGeometry x="502.5" y="765" width="105" height="50" as="geometry" />
        </mxCell>
        <mxCell id="luivyYWbAEqouzFyZwgo-9" value="开启失败" style="rounded=0;whiteSpace=wrap;html=1;" vertex="1" parent="1">
          <mxGeometry x="260" y="1190" width="120" height="60" as="geometry" />
        </mxCell>
        <mxCell id="luivyYWbAEqouzFyZwgo-13" value="否" style="text;html=1;strokeColor=none;fillColor=none;align=center;verticalAlign=middle;whiteSpace=wrap;rounded=0;" vertex="1" parent="1">
          <mxGeometry x="260" y="920" width="40" height="20" as="geometry" />
        </mxCell>
        <mxCell id="luivyYWbAEqouzFyZwgo-14" value="否" style="text;html=1;strokeColor=none;fillColor=none;align=center;verticalAlign=middle;whiteSpace=wrap;rounded=0;" vertex="1" parent="1">
          <mxGeometry x="260" y="1065" width="40" height="20" as="geometry" />
        </mxCell>
        <mxCell id="luivyYWbAEqouzFyZwgo-18" style="edgeStyle=orthogonalEdgeStyle;rounded=0;orthogonalLoop=1;jettySize=auto;html=1;entryX=0.5;entryY=0;entryDx=0;entryDy=0;" edge="1" parent="1" source="luivyYWbAEqouzFyZwgo-15" target="luivyYWbAEqouzFyZwgo-16">
          <mxGeometry relative="1" as="geometry" />
        </mxCell>
        <mxCell id="luivyYWbAEqouzFyZwgo-15" value="配置企业微信" style="rounded=0;whiteSpace=wrap;html=1;" vertex="1" parent="1">
          <mxGeometry x="110" y="640" width="120" height="60" as="geometry" />
        </mxCell>
        <mxCell id="luivyYWbAEqouzFyZwgo-16" value="" style="rhombus;whiteSpace=wrap;html=1;" vertex="1" parent="1">
          <mxGeometry x="130" y="750" width="80" height="80" as="geometry" />
        </mxCell>
        <mxCell id="luivyYWbAEqouzFyZwgo-21" style="edgeStyle=orthogonalEdgeStyle;rounded=0;orthogonalLoop=1;jettySize=auto;html=1;entryX=0.5;entryY=0;entryDx=0;entryDy=0;exitX=0;exitY=0.5;exitDx=0;exitDy=0;" edge="1" parent="1" source="luivyYWbAEqouzFyZwgo-16" target="luivyYWbAEqouzFyZwgo-20">
          <mxGeometry relative="1" as="geometry">
            <mxPoint x="120" y="790" as="sourcePoint" />
          </mxGeometry>
        </mxCell>
        <mxCell id="luivyYWbAEqouzFyZwgo-17" value="开启企业微信" style="text;html=1;strokeColor=none;fillColor=none;align=center;verticalAlign=middle;whiteSpace=wrap;rounded=0;" vertex="1" parent="1">
          <mxGeometry x="150" y="780" width="40" height="20" as="geometry" />
        </mxCell>
        <mxCell id="luivyYWbAEqouzFyZwgo-19" value="是" style="text;html=1;strokeColor=none;fillColor=none;align=center;verticalAlign=middle;whiteSpace=wrap;rounded=0;" vertex="1" parent="1">
          <mxGeometry x="170" y="840" width="40" height="20" as="geometry" />
        </mxCell>
        <mxCell id="luivyYWbAEqouzFyZwgo-20" value="关闭企业微信" style="rounded=0;whiteSpace=wrap;html=1;" vertex="1" parent="1">
          <mxGeometry x="-40" y="1190" width="120" height="60" as="geometry" />
        </mxCell>
        <mxCell id="luivyYWbAEqouzFyZwgo-22" value="否" style="text;html=1;strokeColor=none;fillColor=none;align=center;verticalAlign=middle;whiteSpace=wrap;rounded=0;" vertex="1" parent="1">
          <mxGeometry x="60" y="765" width="40" height="20" as="geometry" />
        </mxCell>
        <mxCell id="luivyYWbAEqouzFyZwgo-28" style="edgeStyle=orthogonalEdgeStyle;rounded=0;orthogonalLoop=1;jettySize=auto;html=1;entryX=0.5;entryY=0;entryDx=0;entryDy=0;" edge="1" parent="1" source="luivyYWbAEqouzFyZwgo-23" target="luivyYWbAEqouzFyZwgo-27">
          <mxGeometry relative="1" as="geometry" />
        </mxCell>
        <mxCell id="luivyYWbAEqouzFyZwgo-23" value="" style="rounded=0;whiteSpace=wrap;html=1;" vertex="1" parent="1">
          <mxGeometry x="115" y="1420" width="120" height="60" as="geometry" />
        </mxCell>
        <mxCell id="luivyYWbAEqouzFyZwgo-24" value="获取所有已开启企业微信的置业顾问信息" style="text;html=1;strokeColor=none;fillColor=none;align=center;verticalAlign=middle;whiteSpace=wrap;rounded=0;" vertex="1" parent="1">
          <mxGeometry x="130" y="1430" width="90" height="40" as="geometry" />
        </mxCell>
        <mxCell id="luivyYWbAEqouzFyZwgo-32" style="edgeStyle=orthogonalEdgeStyle;rounded=0;orthogonalLoop=1;jettySize=auto;html=1;entryX=0.5;entryY=0;entryDx=0;entryDy=0;" edge="1" parent="1" source="luivyYWbAEqouzFyZwgo-27" target="luivyYWbAEqouzFyZwgo-30">
          <mxGeometry relative="1" as="geometry" />
        </mxCell>
        <mxCell id="luivyYWbAEqouzFyZwgo-27" value="" style="rounded=0;whiteSpace=wrap;html=1;" vertex="1" parent="1">
          <mxGeometry x="115" y="1520" width="120" height="60" as="geometry" />
        </mxCell>
        <mxCell id="luivyYWbAEqouzFyZwgo-29" value="通过置业顾问id和xiangmuid查询拉风上下架置业顾问列表" style="text;html=1;strokeColor=none;fillColor=none;align=center;verticalAlign=middle;whiteSpace=wrap;rounded=0;" vertex="1" parent="1">
          <mxGeometry x="130" y="1530" width="90" height="40" as="geometry" />
        </mxCell>
        <mxCell id="luivyYWbAEqouzFyZwgo-34" style="edgeStyle=orthogonalEdgeStyle;rounded=0;orthogonalLoop=1;jettySize=auto;html=1;entryX=0.417;entryY=0;entryDx=0;entryDy=0;entryPerimeter=0;" edge="1" parent="1" source="luivyYWbAEqouzFyZwgo-30" target="luivyYWbAEqouzFyZwgo-33">
          <mxGeometry relative="1" as="geometry" />
        </mxCell>
        <mxCell id="luivyYWbAEqouzFyZwgo-30" value="" style="rhombus;whiteSpace=wrap;html=1;" vertex="1" parent="1">
          <mxGeometry x="117.5" y="1630" width="115" height="100" as="geometry" />
        </mxCell>
        <mxCell id="luivyYWbAEqouzFyZwgo-31" value="不存在该置业顾问或者该置业顾问未启用" style="text;html=1;strokeColor=none;fillColor=none;align=center;verticalAlign=middle;whiteSpace=wrap;rounded=0;" vertex="1" parent="1">
          <mxGeometry x="130" y="1670" width="85" height="20" as="geometry" />
        </mxCell>
        <mxCell id="luivyYWbAEqouzFyZwgo-38" style="edgeStyle=orthogonalEdgeStyle;rounded=0;orthogonalLoop=1;jettySize=auto;html=1;entryX=0.5;entryY=0;entryDx=0;entryDy=0;" edge="1" parent="1" source="luivyYWbAEqouzFyZwgo-33" target="luivyYWbAEqouzFyZwgo-37">
          <mxGeometry relative="1" as="geometry" />
        </mxCell>
        <mxCell id="luivyYWbAEqouzFyZwgo-33" value="" style="rounded=0;whiteSpace=wrap;html=1;" vertex="1" parent="1">
          <mxGeometry x="125" y="1780" width="120" height="60" as="geometry" />
        </mxCell>
        <mxCell id="luivyYWbAEqouzFyZwgo-35" value="是" style="text;html=1;strokeColor=none;fillColor=none;align=center;verticalAlign=middle;whiteSpace=wrap;rounded=0;" vertex="1" parent="1">
          <mxGeometry x="180" y="1744" width="40" height="20" as="geometry" />
        </mxCell>
        <mxCell id="luivyYWbAEqouzFyZwgo-36" value="更新企业微信配置表为关闭状态" style="text;html=1;strokeColor=none;fillColor=none;align=center;verticalAlign=middle;whiteSpace=wrap;rounded=0;" vertex="1" parent="1">
          <mxGeometry x="137.5" y="1800" width="85" height="20" as="geometry" />
        </mxCell>
        <mxCell id="luivyYWbAEqouzFyZwgo-37" value="" style="rounded=0;whiteSpace=wrap;html=1;" vertex="1" parent="1">
          <mxGeometry x="125" y="1890" width="120" height="60" as="geometry" />
        </mxCell>
        <mxCell id="luivyYWbAEqouzFyZwgo-39" value="企业微信置业顾问下架告警" style="text;html=1;strokeColor=none;fillColor=none;align=center;verticalAlign=middle;whiteSpace=wrap;rounded=0;" vertex="1" parent="1">
          <mxGeometry x="137.5" y="1910" width="85" height="20" as="geometry" />
        </mxCell>
      </root>
    </mxGraphModel>
  </diagram>
</mxfile>
